<svg width="164" height="32" viewBox="0 0 164 32" fill="none" xmlns="http://www.w3.org/2000/svg">
    <path fill-rule="evenodd" clip-rule="evenodd" d="M30.9366 10.6136C31.2187 10.6136 31.489 10.7255 31.6885 10.9247C31.8879 11.1241 31.9998 11.3943 32 11.6763L31.9987 20.3195C31.9986 20.9062 31.5229 21.3819 30.936 21.3819L21.3835 21.3836L21.382 30.9359C21.3819 31.5226 20.9062 31.9983 20.3193 31.9983L11.6767 32C11.3947 32.0002 11.1242 31.8882 10.9247 31.6888C10.7254 31.4894 10.6134 31.2191 10.6134 30.9371L10.6149 21.3853L1.06325 21.3866C0.781192 21.3866 0.510771 21.2748 0.311378 21.0754C0.111876 20.876 0 20.6058 0 20.3237L0.00150893 11.6803C0.00161671 11.0936 0.477359 10.6179 1.06433 10.6179L10.6165 10.6164L10.6182 1.06365C10.6183 0.476982 11.0941 0.00150841 11.6809 0.00129292L20.3236 0C20.6057 0 20.8761 0.111838 21.0756 0.311164C21.275 0.510598 21.3869 0.780927 21.3869 1.06289L21.3855 10.6149L30.9366 10.6136ZM15.8582 16.1826C16.4316 16.7532 16.7846 17.4554 16.9171 18.1883L16.9167 18.1867L16.9184 18.1959L16.9171 18.1883C17.1299 19.0856 17.1764 19.9858 17.0606 20.8681L17.0557 20.8994C17.0007 21.6216 16.7354 22.3422 16.2543 22.9533L16.2477 22.9615L16.2358 22.9759C16.2302 22.9826 16.2243 22.9895 16.2183 22.9961C16.078 23.1538 15.9059 23.2679 15.7199 23.3366L15.7268 23.3337C15.5503 23.3942 15.3623 23.3969 15.1861 23.3416L15.1808 23.3396C15.0166 23.2908 14.8437 23.2133 14.6816 23.1118L14.671 23.1044C14.5181 23.0069 14.3536 22.8823 14.1967 22.7428L14.1685 22.7176C13.7665 22.3084 13.457 21.857 13.2308 21.3761L13.2459 21.4057C13.0419 20.9656 12.7433 20.5244 12.3665 20.1334L12.3548 20.1217C11.8871 19.7631 11.394 19.4979 10.8806 19.3133L10.9156 19.3277C10.4179 19.1487 9.90619 18.8676 9.43818 18.499L9.42668 18.4895C8.66539 17.8133 8.54883 17.1785 9.07701 16.585C9.47875 16.1718 9.95824 15.8858 10.472 15.7245L10.4646 15.7272L10.4818 15.7215L10.472 15.7245C11.1142 15.4962 11.7437 15.3675 12.3805 15.325L12.3775 15.3252C13.02 15.2806 13.6667 15.3258 14.3007 15.4631L14.3368 15.4721C14.8664 15.5656 15.3952 15.8002 15.8525 16.1761L15.8573 16.1804L15.8582 16.1826ZM13.2295 14.1986C12.9579 14.5038 12.6085 14.6993 12.2353 14.7827L12.2427 14.7809C11.8913 14.8607 11.5088 14.7743 11.2189 14.5165C11.2058 14.5048 11.193 14.4927 11.1802 14.4806L11.1822 14.4824C10.8464 14.176 10.6513 13.774 10.6028 13.3588L10.6029 13.361C10.4778 12.4884 10.7073 11.5821 11.3069 10.873L11.3097 10.8699C11.3177 10.8602 11.3277 10.8488 11.3378 10.8375C11.6105 10.5311 11.9613 10.3341 12.3355 10.2495L12.3281 10.2514C12.6804 10.1689 13.0644 10.2545 13.3554 10.5134C13.3682 10.5247 13.381 10.5368 13.3934 10.5485L13.3914 10.5467C13.7272 10.8531 13.9223 11.2552 13.9708 11.6703L13.9707 11.6681C14.0945 12.5438 13.8626 13.452 13.2601 14.1635L13.2583 14.1655C13.25 14.1756 13.24 14.1869 13.2295 14.1986ZM17.9976 13.1245L18.0084 13.1124L18.0064 13.1106L18.0074 13.1095C18.2994 12.7742 18.5137 12.3963 18.6417 12.0207L18.6498 12.0013C18.8006 11.5817 18.8519 11.1337 18.8052 10.6916C18.7764 10.2799 18.5913 9.87626 18.2574 9.57578L18.2586 9.57684C18.2517 9.57008 18.2446 9.5637 18.2374 9.55733C17.9929 9.33989 17.6889 9.23177 17.3897 9.2306L17.387 9.23036C17.0826 9.22459 16.7792 9.29531 16.4959 9.44611L16.5136 9.43592C16.2412 9.58244 15.9898 9.77763 15.773 10.0212L15.7623 10.0333L15.7609 10.0348C15.4707 10.3697 15.2578 10.746 15.1297 11.12L15.1216 11.1395C14.9694 11.5614 14.9187 12.0112 14.9678 12.4562C14.9974 12.8678 15.182 13.2712 15.5156 13.572L15.5339 13.5883C15.7784 13.8058 16.0817 13.9139 16.3809 13.9151L16.3836 13.9153C16.688 13.9211 16.9914 13.8504 17.2747 13.6996L17.257 13.7098C17.5294 13.5632 17.7808 13.3681 17.9976 13.1245ZM18.4906 16.2185L18.4723 16.2022C18.2278 15.9848 18.0854 15.6959 18.049 15.3978L18.0491 15.3993C18.0077 15.0947 18.0419 14.7853 18.1543 14.4987L18.1595 14.4865C18.2649 14.2173 18.4295 13.9449 18.6463 13.7014L18.657 13.6893C18.9576 13.3588 19.3077 13.1024 19.6876 12.9201L19.6659 12.9316C20.0844 12.7227 20.5227 12.6196 20.9652 12.6146L20.9679 12.6149C21.3798 12.596 21.8025 12.7327 22.1395 13.0289L22.1582 13.0456C22.4027 13.263 22.5451 13.5519 22.5815 13.85L22.5814 13.8485C22.6228 14.1531 22.5886 14.4625 22.4762 14.7491L22.471 14.7613C22.3658 15.0327 22.2001 15.307 21.982 15.5521L21.9751 15.5599C21.6752 15.8889 21.3257 16.1437 20.9477 16.3256L20.9693 16.3141C20.5495 16.5246 20.1084 16.6274 19.6636 16.6303L19.6606 16.6304C19.2489 16.6481 18.8267 16.5118 18.4897 16.2155L18.4906 16.2185ZM21.7799 18.0068C21.7671 17.9955 21.754 17.9846 21.7425 17.975L21.7413 17.9732L21.7405 17.9725C21.3986 17.6762 20.9772 17.53 20.562 17.5293L20.5564 17.5292C19.6772 17.5087 18.8018 17.8447 18.1626 18.5285L18.164 18.5269C18.1536 18.5379 18.1431 18.5496 18.1331 18.5609C17.8618 18.8657 17.7079 19.2358 17.6695 19.6085L17.669 19.613C17.6308 19.967 17.7615 20.3363 18.0514 20.5941C18.0645 20.6058 18.078 20.6171 18.0895 20.6266L18.0903 20.6274C18.433 20.9244 18.8551 21.0713 19.271 21.0712L19.2767 21.0713C20.1523 21.0942 21.026 20.7609 21.6635 20.0799L21.6621 20.0814C21.6725 20.0705 21.6823 20.0595 21.6923 20.0482C21.9654 19.7414 22.1199 19.3706 22.1598 18.9963L22.1602 18.9918C22.2007 18.637 22.071 18.2657 21.7799 18.0068Z" fill="#1F9F84"/>
    <path d="M51.5083 21.1558L55.2679 7.34558H60.1443L54.052 25.4118H50.9003L51.5083 21.1558ZM48.0961 7.34558L51.8557 21.1558L52.4885 25.4118H49.2997L43.2445 7.34558H48.0961Z" fill="#01393C"/>
    <path d="M74.6672 22.0616V25.4118H65.0386V22.0616H74.6672ZM66.5896 7.34558V25.4118H62.2343V7.34558H66.5896ZM73.4264 14.5175V17.756H65.0386V14.5175H73.4264ZM74.7045 7.34558V10.7082H65.0386V7.34558H74.7045Z" fill="#01393C"/>
    <path d="M86.2122 7.34558V25.4118H81.857V7.34558H86.2122ZM91.647 7.34558V10.7082H76.5463V7.34558H91.647Z" fill="#01393C"/>
    <path d="M106.29 14.5175V17.8676H97.0212V14.5175H106.29ZM98.4729 7.34558V25.4118H94.1177V7.34558H98.4729ZM109.218 7.34558V25.4118H104.875V7.34558H109.218Z" fill="#1F9F84"/>
    <path d="M125.181 22.0616V25.4118H115.552V22.0616H125.181ZM117.103 7.34558V25.4118H112.748V7.34558H117.103ZM123.94 14.5175V17.756H115.552V14.5175H123.94ZM125.218 7.34558V10.7082H115.552V7.34558H125.218Z" fill="#1F9F84"/>
    <path d="M139.666 22.0616V25.4118H130.534V22.0616H139.666ZM132.085 7.34558V25.4118H127.73V7.34558H132.085Z" fill="#1F9F84"/>
    <path d="M144.424 7.34558H147.973L152.005 19.915L156.038 7.34558H159.587L153.445 25.4118H150.566L144.424 7.34558ZM142.265 7.34558H145.938L146.62 21.193V25.4118H142.265V7.34558ZM158.073 7.34558H161.758V25.4118H157.39V21.193L158.073 7.34558Z" fill="#1F9F84"/>
</svg>

