<svg width="44" height="43" viewBox="0 0 44 43" fill="none" xmlns="http://www.w3.org/2000/svg">
<path d="M42.5993 14.68C42.3312 14.4123 41.968 14.2621 41.589 14.2621L28.7546 14.2638L28.7565 1.42826C28.7565 1.04937 28.6062 0.686115 28.3382 0.418127C28.0701 0.150282 27.7068 0 27.3277 0L15.7141 0.00173737C14.9255 0.00202693 14.2862 0.640944 14.2861 1.42927L14.2838 14.2658L1.44808 14.2678C0.659335 14.2678 0.0200557 14.907 0.0199109 15.6954L0.0178833 27.31C0.0178833 27.689 0.168217 28.0521 0.436297 28.3201C0.704232 28.588 1.06761 28.7382 1.44663 28.7382L14.2816 28.7365L14.2796 41.5717C14.2796 41.9506 14.4302 42.3139 14.698 42.5819C14.9661 42.8497 15.3294 43.0003 15.7085 43L27.3219 42.9977C28.1105 42.9977 28.7498 42.3585 28.75 41.5701L28.752 28.7342L41.5881 28.7319C42.3767 28.7319 43.016 28.0927 43.0161 27.3043L43.0179 15.69C43.0176 15.3111 42.8673 14.948 42.5993 14.68Z" fill="#585CE5"/>
<path d="M24.2166 17.6197L24.2021 17.636C23.9109 17.9633 23.573 18.2255 23.207 18.4224L23.2307 18.4087C22.85 18.6114 22.4424 18.7064 22.0333 18.6987L22.0298 18.6983C21.6276 18.6967 21.2201 18.5514 20.8916 18.2592C20.883 18.2516 20.8745 18.244 20.8659 18.2364L20.867 18.2373C20.4187 17.833 20.1706 17.2911 20.1308 16.738C20.0648 16.14 20.1331 15.5355 20.3376 14.9686L20.3483 14.9425C20.5206 14.4399 20.8066 13.9342 21.1965 13.4842L21.1984 13.4821C21.2026 13.4774 21.2077 13.4716 21.2129 13.4659C21.5041 13.1386 21.842 12.8763 22.208 12.6794L22.1843 12.6931C22.565 12.4905 22.9726 12.3955 23.3817 12.4032L23.3852 12.4036C23.7874 12.4051 24.1959 12.5504 24.5244 12.8426C24.534 12.8512 24.5437 12.8597 24.5528 12.8688L24.5512 12.8674C25 13.2712 25.2486 13.8136 25.2874 14.3667C25.3501 14.9609 25.2812 15.5629 25.0785 16.1267L25.0677 16.1528C24.8956 16.6574 24.6077 17.1652 24.2153 17.6158L24.2139 17.6174L24.2166 17.6197ZM17.8337 19.0348C17.8226 19.0484 17.8091 19.0636 17.7951 19.0793C17.4301 19.4895 16.9605 19.7521 16.4591 19.8642L16.469 19.8618C15.9969 19.969 15.4829 19.8529 15.0933 19.5064C15.0757 19.4907 15.0585 19.4745 15.0413 19.4583L15.044 19.4607C14.5927 19.049 14.3306 18.5087 14.2653 17.9508L14.2655 17.9538C14.0975 16.7812 14.4057 15.5634 15.2116 14.6105L15.2153 14.6063C15.226 14.5933 15.2395 14.5781 15.253 14.5629C15.6194 14.1512 16.0908 13.8864 16.5937 13.7727L16.5838 13.7752C17.0572 13.6644 17.5731 13.7794 17.9643 14.1273C17.9814 14.1425 17.9986 14.1587 18.0152 14.1745L18.0126 14.1721C18.4638 14.5838 18.7259 15.1241 18.7912 15.6819L18.791 15.6789C18.9573 16.8556 18.6457 18.0761 17.8361 19.0322L17.8328 19.0359L17.8337 19.0348ZM21.3273 21.7453C22.1006 22.5147 22.5754 23.4622 22.752 24.4507L22.7497 24.4383C23.0362 25.6448 23.0988 26.8552 22.9431 28.0415L22.9364 28.0834C22.8625 29.054 22.5061 30.0223 21.8596 30.8435L21.8508 30.8544C21.8392 30.8685 21.8252 30.8853 21.8112 30.901C21.6227 31.1129 21.3914 31.2661 21.1414 31.3585L21.1507 31.3546C20.9135 31.4358 20.661 31.4395 20.4242 31.3652L20.417 31.3626C20.1964 31.297 19.9642 31.1928 19.7463 31.0564L19.732 31.0465C19.5266 30.9155 19.3056 30.748 19.0947 30.5605C19.0814 30.5487 19.068 30.5368 19.0546 30.5249L19.0568 30.5268C18.5166 29.9769 18.1007 29.3703 17.7968 28.7241L17.8171 28.7638C17.543 28.1724 17.1416 27.5797 16.6353 27.0542L16.6197 27.0384C15.9912 26.5565 15.3286 26.2003 14.6387 25.9522L14.6858 25.9715C14.017 25.731 13.3293 25.3533 12.7004 24.8579L12.685 24.8451C11.662 23.9366 11.5054 23.0836 12.2151 22.2861C12.7584 21.7273 13.4075 21.3416 14.1028 21.1257L14.0797 21.1333C14.9462 20.8243 15.7952 20.6502 16.6541 20.5929L16.6501 20.5931C17.5135 20.5332 18.3825 20.5939 19.2344 20.7784L19.283 20.7906C19.9947 20.9162 20.7052 21.2315 21.3197 21.7366L21.3261 21.7423L21.3273 21.7453ZM24.8647 21.7935C24.8572 21.7869 24.8486 21.7792 24.84 21.7716C24.5115 21.4794 24.3201 21.0913 24.2712 20.6907L24.2713 20.6927C24.2157 20.2834 24.2617 19.8677 24.4127 19.4825L24.4197 19.4661C24.5613 19.1045 24.7825 18.7384 25.0738 18.4112C25.0789 18.4054 25.084 18.3996 25.0892 18.3939L25.0882 18.3949C25.4921 17.9508 25.9626 17.6063 26.473 17.3613L26.4439 17.3767C27.0062 17.096 27.5953 16.9576 28.1899 16.9508L28.1934 16.9511C28.747 16.9258 29.3149 17.1095 29.7678 17.5076L29.7683 17.5081L29.7929 17.5299C30.1215 17.8221 30.3128 18.2103 30.3618 18.6109L30.3617 18.6089C30.4173 19.0182 30.3713 19.4339 30.2202 19.8191L30.2133 19.8355C30.0719 20.2001 29.8493 20.5687 29.5562 20.8981L29.5469 20.9085L29.5473 20.908C29.1443 21.3501 28.6743 21.6931 28.1663 21.9375L28.1954 21.922C27.6312 22.2048 27.0386 22.3429 26.4408 22.3469L26.4368 22.347C25.8836 22.3709 25.3163 22.1876 24.8634 21.7896L24.8628 21.7891L24.8647 21.7935ZM29.2344 24.1539C29.2499 24.1667 29.2675 24.1814 29.2846 24.1966C29.6757 24.5445 29.85 25.0434 29.7957 25.5202L29.7951 25.5263C29.7415 26.0292 29.5338 26.5275 29.167 26.9397C29.1534 26.9549 29.1404 26.9696 29.1263 26.9843L29.1282 26.9822C28.2715 27.8975 27.0975 28.3453 25.9209 28.3146L25.9133 28.3144C25.3545 28.3144 24.7872 28.1171 24.3267 27.7179L24.3256 27.717C24.3102 27.7042 24.292 27.689 24.2744 27.6733C23.8848 27.3269 23.7092 26.8306 23.7606 26.3549L23.7612 26.3488C23.8129 25.848 24.0197 25.3507 24.3842 24.9411C24.3977 24.9259 24.4117 24.9102 24.4258 24.8954L24.4239 24.8975C25.2829 23.9787 26.4592 23.5272 27.6406 23.5547L27.6481 23.5549C28.206 23.5559 28.7723 23.7523 29.2317 24.1505L29.2327 24.1515L29.2344 24.1539Z" fill="#E5E5E5"/>
</svg>
